<mxfile host="app.diagrams.net" modified="2023-10-26T15:52:57.058Z" agent="Mozilla/5.0 (Windows NT 10.0; Win64; x64) AppleWebKit/537.36 (KHTML, like Gecko) Chrome/118.0.0.0 Safari/537.36" etag="CbZ_Y4miZOzJUIkHpUMl" version="22.0.8" type="github">
  <diagram name="PÃ¡gina-1" id="C1ZPUfGnEs00icdB-hGw">
    <mxGraphModel dx="2261" dy="786" grid="1" gridSize="10" guides="1" tooltips="1" connect="1" arrows="1" fold="1" page="1" pageScale="1" pageWidth="827" pageHeight="1169" math="0" shadow="0">
      <root>
        <mxCell id="0" />
        <mxCell id="1" parent="0" />
        <mxCell id="x-Qiu9z0Y1_OiNFqEPFZ-4" value="Disco" style="rounded=0;whiteSpace=wrap;html=1;" vertex="1" parent="1">
          <mxGeometry x="320" y="300" width="120" height="60" as="geometry" />
        </mxCell>
        <mxCell id="x-Qiu9z0Y1_OiNFqEPFZ-6" value="Musica" style="rounded=0;whiteSpace=wrap;html=1;" vertex="1" parent="1">
          <mxGeometry x="-20" y="300" width="120" height="60" as="geometry" />
        </mxCell>
        <mxCell id="x-Qiu9z0Y1_OiNFqEPFZ-8" value="Faz" style="rhombus;whiteSpace=wrap;html=1;" vertex="1" parent="1">
          <mxGeometry x="170" y="290" width="80" height="80" as="geometry" />
        </mxCell>
        <mxCell id="x-Qiu9z0Y1_OiNFqEPFZ-11" value="" style="endArrow=none;html=1;rounded=0;exitX=1;exitY=0.5;exitDx=0;exitDy=0;entryX=0;entryY=0.5;entryDx=0;entryDy=0;" edge="1" parent="1" source="x-Qiu9z0Y1_OiNFqEPFZ-8" target="x-Qiu9z0Y1_OiNFqEPFZ-4">
          <mxGeometry width="50" height="50" relative="1" as="geometry">
            <mxPoint x="390" y="430" as="sourcePoint" />
            <mxPoint x="440" y="380" as="targetPoint" />
          </mxGeometry>
        </mxCell>
        <mxCell id="x-Qiu9z0Y1_OiNFqEPFZ-12" value="" style="endArrow=none;html=1;rounded=0;exitX=1;exitY=0.5;exitDx=0;exitDy=0;entryX=0;entryY=0.5;entryDx=0;entryDy=0;" edge="1" parent="1" source="x-Qiu9z0Y1_OiNFqEPFZ-6" target="x-Qiu9z0Y1_OiNFqEPFZ-8">
          <mxGeometry width="50" height="50" relative="1" as="geometry">
            <mxPoint x="390" y="430" as="sourcePoint" />
            <mxPoint x="440" y="380" as="targetPoint" />
          </mxGeometry>
        </mxCell>
        <mxCell id="x-Qiu9z0Y1_OiNFqEPFZ-15" value="N" style="text;html=1;strokeColor=none;fillColor=none;align=center;verticalAlign=middle;whiteSpace=wrap;rounded=0;" vertex="1" parent="1">
          <mxGeometry x="260" y="300" width="60" height="30" as="geometry" />
        </mxCell>
        <mxCell id="x-Qiu9z0Y1_OiNFqEPFZ-16" value="N" style="text;html=1;strokeColor=none;fillColor=none;align=center;verticalAlign=middle;whiteSpace=wrap;rounded=0;" vertex="1" parent="1">
          <mxGeometry x="100" y="300" width="60" height="30" as="geometry" />
        </mxCell>
        <mxCell id="x-Qiu9z0Y1_OiNFqEPFZ-21" value="Titulo" style="ellipse;whiteSpace=wrap;html=1;" vertex="1" parent="1">
          <mxGeometry x="-140" y="270" width="100" height="50" as="geometry" />
        </mxCell>
        <mxCell id="x-Qiu9z0Y1_OiNFqEPFZ-23" value="ID" style="ellipse;whiteSpace=wrap;html=1;" vertex="1" parent="1">
          <mxGeometry x="370" y="370" width="70" height="40" as="geometry" />
        </mxCell>
        <mxCell id="x-Qiu9z0Y1_OiNFqEPFZ-24" value="Grupo" style="ellipse;whiteSpace=wrap;html=1;" vertex="1" parent="1">
          <mxGeometry x="420" y="250" width="70" height="40" as="geometry" />
        </mxCell>
        <mxCell id="x-Qiu9z0Y1_OiNFqEPFZ-25" value="Data" style="ellipse;whiteSpace=wrap;html=1;" vertex="1" parent="1">
          <mxGeometry x="450" y="300" width="70" height="40" as="geometry" />
        </mxCell>
        <mxCell id="x-Qiu9z0Y1_OiNFqEPFZ-26" value="Titulo" style="ellipse;whiteSpace=wrap;html=1;" vertex="1" parent="1">
          <mxGeometry x="334" y="250" width="80" height="40" as="geometry" />
        </mxCell>
        <mxCell id="x-Qiu9z0Y1_OiNFqEPFZ-27" style="edgeStyle=orthogonalEdgeStyle;rounded=0;orthogonalLoop=1;jettySize=auto;html=1;exitX=0.5;exitY=1;exitDx=0;exitDy=0;" edge="1" parent="1">
          <mxGeometry relative="1" as="geometry">
            <mxPoint x="520" y="220" as="sourcePoint" />
            <mxPoint x="520" y="220" as="targetPoint" />
          </mxGeometry>
        </mxCell>
        <mxCell id="x-Qiu9z0Y1_OiNFqEPFZ-33" value="Nr de vendas" style="ellipse;whiteSpace=wrap;html=1;" vertex="1" parent="1">
          <mxGeometry x="450" y="355" width="60" height="40" as="geometry" />
        </mxCell>
        <mxCell id="x-Qiu9z0Y1_OiNFqEPFZ-36" value="Autor" style="ellipse;whiteSpace=wrap;html=1;" vertex="1" parent="1">
          <mxGeometry x="-140" y="340" width="100" height="50" as="geometry" />
        </mxCell>
      </root>
    </mxGraphModel>
  </diagram>
</mxfile>
